<?xml version="1.0" encoding="utf-8"?>
<!-- Generator: Adobe Illustrator 27.5.0, SVG Export Plug-In . SVG Version: 6.00 Build 0)  -->
<svg version="1.1" xmlns="http://www.w3.org/2000/svg" xmlns:xlink="http://www.w3.org/1999/xlink" x="0px" y="0px"
	 viewBox="0 0 500 500" style="enable-background:new 0 0 500 500;" xml:space="preserve">
<g id="Background_Complete">
	<g>
		<rect y="382.398" style="fill:#EBEBEB;" width="500" height="0.25"/>
		<rect x="416.779" y="398.494" style="fill:#EBEBEB;" width="33.122" height="0.25"/>
		<rect x="322.527" y="401.208" style="fill:#EBEBEB;" width="8.693" height="0.25"/>
		<rect x="396.586" y="389.208" style="fill:#EBEBEB;" width="19.192" height="0.25"/>
		<rect x="52.459" y="390.888" style="fill:#EBEBEB;" width="43.193" height="0.25"/>
		<rect x="104.556" y="390.888" style="fill:#EBEBEB;" width="6.333" height="0.25"/>
		<rect x="131.471" y="395.111" style="fill:#EBEBEB;" width="93.676" height="0.25"/>
		<path style="fill:#EBEBEB;" d="M237.014,337.8H43.915c-3.147,0-5.708-2.561-5.708-5.708V60.66c0-3.147,2.561-5.708,5.708-5.708
			h193.099c3.146,0,5.707,2.561,5.707,5.708v271.432C242.721,335.239,240.16,337.8,237.014,337.8z M43.915,55.203
			c-3.01,0-5.458,2.448-5.458,5.458v271.432c0,3.01,2.448,5.458,5.458,5.458h193.099c3.009,0,5.457-2.448,5.457-5.458V60.66
			c0-3.009-2.448-5.458-5.457-5.458H43.915z"/>
		<path style="fill:#EBEBEB;" d="M453.31,337.8H260.212c-3.147,0-5.707-2.561-5.707-5.708V60.66c0-3.147,2.561-5.708,5.707-5.708
			H453.31c3.148,0,5.708,2.561,5.708,5.708v271.432C459.019,335.239,456.458,337.8,453.31,337.8z M260.212,55.203
			c-3.009,0-5.457,2.448-5.457,5.458v271.432c0,3.01,2.448,5.458,5.457,5.458H453.31c3.01,0,5.458-2.448,5.458-5.458V60.66
			c0-3.009-2.448-5.458-5.458-5.458H260.212z"/>
	</g>
	<g>
		<g>
			
				<rect x="295.325" y="133.904" transform="matrix(6.123234e-17 -1 1 6.123234e-17 176.3338 535.0764)" style="fill:#E6E6E6;" width="120.76" height="90.934"/>
			<rect x="312.383" y="121.135" style="fill:#F5F5F5;" width="86.644" height="116.472"/>
			<path style="fill:#E6E6E6;" d="M385.199,150.946c-5.986,1.685-14.882,11.746-19.734,10.059c-0.172-0.076-0.335-0.153-0.515-0.227
				c-0.014-0.008-0.028-0.012-0.042-0.02l-0.001,0.001c-2.417-0.989-4.429-1.805-8.414-1.979v-0.037
				c-0.27,0-0.525,0.013-0.788,0.019c-0.264-0.006-0.518-0.019-0.789-0.019v0.037c-3.985,0.174-5.997,0.99-8.414,1.979l-0.001-0.001
				c-0.014,0.008-0.028,0.012-0.042,0.02c-0.18,0.074-0.344,0.152-0.515,0.227c-4.852,1.688-13.748-8.374-19.734-10.059
				c-6.22-1.751-12.816,4.497-8.019,14.062c3.872,7.722,7.944,7.086,7.944,7.086s1.783,0.129,2.343-1.046
				c2.904-6.1-3.531-11.728-7.52-10.476c0,0-2.996-6.157,2.929-7.017c5.062-0.734,11.331,8.31,17.282,12.78
				c-0.07,3.367,0.203,8.799,4.782,12.089c5.703,4.098-1.117,9.515,1.693,13.516c2.811,4.001,7.064,7.433,7.064,15.343h0.208h0.434
				h1.35c0-7.91,4.254-11.343,7.064-15.343c2.81-4.001-4.009-9.418,1.694-13.516c4.579-3.29,4.851-8.722,4.781-12.089
				c5.951-4.471,12.221-13.515,17.283-12.78c5.925,0.859,2.929,7.017,2.929,7.017c-3.988-1.252-10.423,4.375-7.52,10.476
				c0.56,1.175,2.342,1.046,2.342,1.046s4.072,0.636,7.944-7.086C398.015,155.443,391.42,149.195,385.199,150.946z"/>
			<rect x="318.685" y="190.876" style="fill:#FAFAFA;" width="16.725" height="9.813"/>
			<rect x="361.431" y="220.127" style="fill:#FAFAFA;" width="16.725" height="9.813"/>
			<rect x="377.081" y="182.96" style="fill:#FAFAFA;" width="16.725" height="9.813"/>
			<rect x="347.343" y="130.043" style="fill:#FAFAFA;" width="16.725" height="9.813"/>
			
				<line style="fill:none;stroke:#FAFAFA;stroke-width:0.5713;stroke-linecap:round;stroke-linejoin:round;stroke-miterlimit:10;" x1="385.444" y1="187.063" x2="385.444" y2="169.953"/>
			
				<line style="fill:none;stroke:#FAFAFA;stroke-width:0.5713;stroke-linecap:round;stroke-linejoin:round;stroke-miterlimit:10;" x1="355.705" y1="134.949" x2="355.705" y2="167.494"/>
			
				<line style="fill:none;stroke:#FAFAFA;stroke-width:0.5713;stroke-linecap:round;stroke-linejoin:round;stroke-miterlimit:10;" x1="327.047" y1="195.782" x2="355.705" y2="188.817"/>
			
				<line style="fill:none;stroke:#FAFAFA;stroke-width:0.5713;stroke-linecap:round;stroke-linejoin:round;stroke-miterlimit:10;" x1="369.793" y1="225.033" x2="355.705" y2="202.041"/>
		</g>
		<g>
			<polygon style="fill:#E0E0E0;" points="217.53,334.742 217.53,384.376 221.225,384.376 221.225,340.555 276.395,340.555 
				276.395,384.376 280.089,384.376 280.089,334.742 			"/>
			<path style="fill:#F0F0F0;" d="M278.914,337.272h-60.208c-1.645,0-2.979-1.334-2.979-2.979v-1.385
				c0-1.645,1.334-2.979,2.979-2.979h60.208c1.645,0,2.979,1.334,2.979,2.979v1.385
				C281.892,335.939,280.559,337.272,278.914,337.272z"/>
			<path style="fill:#F0F0F0;" d="M277.275,331.277h-56.93V284.06c0-6.648,5.39-12.038,12.038-12.038h32.854
				c6.648,0,12.038,5.39,12.038,12.038V331.277z"/>
		</g>
		<g>
			<polygon style="fill:#E0E0E0;" points="142.284,334.742 142.284,384.376 145.979,384.376 145.979,340.555 201.149,340.555 
				201.149,384.376 204.843,384.376 204.843,334.742 			"/>
			<path style="fill:#F0F0F0;" d="M203.668,337.272H143.46c-1.645,0-2.979-1.334-2.979-2.979v-1.385
				c0-1.645,1.334-2.979,2.979-2.979h60.208c1.645,0,2.979,1.334,2.979,2.979v1.385
				C206.646,335.939,205.313,337.272,203.668,337.272z"/>
			<path style="fill:#F0F0F0;" d="M202.029,331.277h-56.93V284.06c0-6.648,5.39-12.038,12.038-12.038h32.854
				c6.648,0,12.038,5.39,12.038,12.038V331.277z"/>
		</g>
		<g>
			<polygon style="fill:#E0E0E0;" points="67.038,334.742 67.038,384.376 70.733,384.376 70.733,340.555 125.903,340.555 
				125.903,384.376 129.597,384.376 129.597,334.742 			"/>
			<path style="fill:#F0F0F0;" d="M128.422,337.272H68.214c-1.645,0-2.979-1.334-2.979-2.979v-1.385
				c0-1.645,1.334-2.979,2.979-2.979h60.208c1.645,0,2.979,1.334,2.979,2.979v1.385C131.4,335.939,130.067,337.272,128.422,337.272z
				"/>
			<path style="fill:#F0F0F0;" d="M126.783,331.277h-56.93V284.06c0-6.648,5.39-12.038,12.038-12.038h32.854
				c6.648,0,12.038,5.39,12.038,12.038V331.277z"/>
		</g>
		<g>
			<polygon style="fill:#E0E0E0;" points="292.776,334.742 292.776,384.376 296.47,384.376 296.47,340.555 351.64,340.555 
				351.64,384.376 355.335,384.376 355.335,334.742 			"/>
			<path style="fill:#F0F0F0;" d="M354.159,337.272h-60.208c-1.645,0-2.979-1.334-2.979-2.979v-1.385
				c0-1.645,1.333-2.979,2.979-2.979h60.208c1.645,0,2.979,1.334,2.979,2.979v1.385
				C357.138,335.939,355.805,337.272,354.159,337.272z"/>
			<path style="fill:#F0F0F0;" d="M352.521,331.277h-56.93V284.06c0-6.648,5.39-12.038,12.038-12.038h32.854
				c6.648,0,12.038,5.39,12.038,12.038V331.277z"/>
		</g>
		<g>
			<polygon style="fill:#E0E0E0;" points="368.022,334.742 368.022,384.376 371.717,384.376 371.717,340.555 426.886,340.555 
				426.886,384.376 430.581,384.376 430.581,334.742 			"/>
			<path style="fill:#F0F0F0;" d="M429.405,337.272h-60.208c-1.645,0-2.979-1.334-2.979-2.979v-1.385
				c0-1.645,1.334-2.979,2.979-2.979h60.208c1.645,0,2.979,1.334,2.979,2.979v1.385C432.384,335.939,431.05,337.272,429.405,337.272
				z"/>
			<path style="fill:#F0F0F0;" d="M427.767,331.277h-56.93V284.06c0-6.648,5.389-12.038,12.038-12.038h32.854
				c6.648,0,12.038,5.39,12.038,12.038V331.277z"/>
		</g>
		<g>
			<rect x="85.538" y="118.395" style="fill:#E9E9E9;" width="116.695" height="129.13"/>
			<rect x="90.673" y="123.51" style="fill:#F5F5F5;" width="106.731" height="119.166"/>
			<polygon style="fill:#FFFFFF;" points="120.838,123.51 90.673,236.479 90.673,175.321 104.476,123.51 			"/>
			<polygon style="fill:#FFFFFF;" points="134.319,123.51 102.507,242.676 96.507,242.676 128.319,123.51 			"/>
			<polygon style="fill:#FFFFFF;" points="197.404,156.006 197.404,217.174 190.648,242.676 174.286,242.676 			"/>
			<rect x="141.814" y="118.395" style="fill:#E9E9E9;" width="4.145" height="129.13"/>
			<rect x="87.564" y="144.597" style="fill:#E9E9E9;" width="112.431" height="4.145"/>
		</g>
	</g>
</g>
<g id="Background_Simple" style="display:none;">
	<g style="display:inline;">
		<path style="fill:#407BFF;" d="M86.903,102.921c27.919-59.449,127.059-51.062,165.317-9.255
			c38.258,41.806,50.696,68.599,85.208,52.983c34.512-15.616,78.518-11.44,81.042,38.164s-37.913,108.263-102.09,125.615
			c-64.177,17.352-64.161,78.759-149.1,66.368c-46.31-6.756-47.365-56.86-40.825-98.301S54.524,171.864,86.903,102.921z"/>
		<path style="opacity:0.9;fill:#FFFFFF;" d="M86.903,102.921c27.919-59.449,127.059-51.062,165.317-9.255
			c38.258,41.806,50.696,68.599,85.208,52.983c34.512-15.616,78.518-11.44,81.042,38.164s-37.913,108.263-102.09,125.615
			c-64.177,17.352-64.161,78.759-149.1,66.368c-46.31-6.756-47.365-56.86-40.825-98.301S54.524,171.864,86.903,102.921z"/>
	</g>
</g>
<g id="Shadow_1_">
	<ellipse id="_x3C_Path_x3E__359_" style="fill:#F5F5F5;" cx="250" cy="416.238" rx="193.889" ry="11.323"/>
</g>
<g id="Tubes">
	<g>
		<g>
			<rect x="171.529" y="332.089" style="fill:#263238;" width="2.789" height="83.747"/>
			<rect x="253.43" y="332.089" style="fill:#263238;" width="2.789" height="83.747"/>
		</g>
		<g style="opacity:0.5;">
			<rect x="171.529" y="332.089" style="fill:#FFFFFF;" width="2.789" height="83.747"/>
			<rect x="253.43" y="332.089" style="fill:#FFFFFF;" width="2.789" height="83.747"/>
		</g>
		<g>
			<g>
				<path style="fill:#263238;" d="M177.955,325.073v76.698c0,4.3,3.486,7.786,7.787,7.786h0c4.3,0,7.786-3.486,7.786-7.786v-76.698
					H177.955z"/>
				<path style="fill:#263238;" d="M179.444,356.437v45.333c0,3.472,2.825,6.298,6.298,6.298s6.297-2.825,6.297-6.298v-45.333
					H179.444z"/>
				<path style="opacity:0.8;fill:#FFFFFF;" d="M177.955,325.073v76.698c0,4.3,3.486,7.786,7.787,7.786h0
					c4.3,0,7.786-3.486,7.786-7.786v-76.698H177.955z"/>
				<path style="fill:#407BFF;" d="M179.444,356.437v45.333c0,3.472,2.825,6.298,6.298,6.298s6.297-2.825,6.297-6.298v-45.333
					H179.444z"/>
				<path style="opacity:0.2;" d="M179.444,356.437v45.333c0,3.472,2.825,6.298,6.298,6.298s6.297-2.825,6.297-6.298v-45.333
					H179.444z"/>
				<rect x="183.493" y="343.955" style="fill:#FFFFFF;" width="9.599" height="41.153"/>
				<path style="fill:#407BFF;" d="M193.445,329.149h-15.408c-0.913,0-1.653-0.74-1.653-1.653v-4.573
					c0-0.913,0.74-1.653,1.653-1.653h15.408c0.913,0,1.653,0.74,1.653,1.653v4.573C195.098,328.409,194.358,329.149,193.445,329.149
					z"/>
			</g>
			<g>
				<path style="fill:#263238;" d="M206.087,325.073v76.698c0,4.3,3.486,7.786,7.786,7.786h0c4.3,0,7.786-3.486,7.786-7.786v-76.698
					H206.087z"/>
				<path style="fill:#263238;" d="M207.576,356.437v45.333c0,3.472,2.825,6.298,6.298,6.298c3.472,0,6.297-2.825,6.297-6.298
					v-45.333H207.576z"/>
				<path style="opacity:0.8;fill:#FFFFFF;" d="M206.087,325.073v76.698c0,4.3,3.486,7.786,7.786,7.786h0
					c4.3,0,7.786-3.486,7.786-7.786v-76.698H206.087z"/>
				<path style="fill:#407BFF;" d="M207.576,356.437v45.333c0,3.472,2.825,6.298,6.298,6.298c3.472,0,6.297-2.825,6.297-6.298
					v-45.333H207.576z"/>
				<path style="opacity:0.2;" d="M207.576,356.437v45.333c0,3.472,2.825,6.298,6.298,6.298c3.472,0,6.297-2.825,6.297-6.298
					v-45.333H207.576z"/>
				<rect x="209.392" y="343.955" style="fill:#FFFFFF;" width="9.599" height="41.153"/>
				<path style="fill:#407BFF;" d="M221.578,329.149H206.17c-0.913,0-1.653-0.74-1.653-1.653v-4.573c0-0.913,0.74-1.653,1.653-1.653
					h15.408c0.913,0,1.653,0.74,1.653,1.653v4.573C223.23,328.409,222.49,329.149,221.578,329.149z"/>
			</g>
			<g>
				<path style="fill:#263238;" d="M249.793,325.073v76.698c0,4.3-3.486,7.786-7.787,7.786h0c-4.3,0-7.786-3.486-7.786-7.786
					v-76.698H249.793z"/>
				<path style="fill:#263238;" d="M248.304,356.437v45.333c0,3.472-2.825,6.298-6.298,6.298s-6.297-2.825-6.297-6.298v-45.333
					H248.304z"/>
				<path style="opacity:0.8;fill:#FFFFFF;" d="M249.793,325.073v76.698c0,4.3-3.486,7.786-7.787,7.786h0
					c-4.3,0-7.786-3.486-7.786-7.786v-76.698H249.793z"/>
				<path style="fill:#407BFF;" d="M248.304,356.437v45.333c0,3.472-2.825,6.298-6.298,6.298s-6.297-2.825-6.297-6.298v-45.333
					H248.304z"/>
				<path style="opacity:0.2;" d="M248.304,356.437v45.333c0,3.472-2.825,6.298-6.298,6.298s-6.297-2.825-6.297-6.298v-45.333
					H248.304z"/>
				
					<rect x="234.655" y="343.955" transform="matrix(-1 -1.224647e-16 1.224647e-16 -1 478.9097 729.0639)" style="fill:#FFFFFF;" width="9.599" height="41.153"/>
				<path style="fill:#407BFF;" d="M234.303,329.149h15.408c0.913,0,1.653-0.74,1.653-1.653v-4.573c0-0.913-0.74-1.653-1.653-1.653
					h-15.408c-0.913,0-1.653,0.74-1.653,1.653v4.573C232.65,328.409,233.39,329.149,234.303,329.149z"/>
			</g>
		</g>
		<path style="fill:#263238;" d="M259.666,409.654h-91.584c-0.859,0-1.556,0.697-1.556,1.556v4.97h94.695v-4.97
			C261.221,410.35,260.525,409.654,259.666,409.654z"/>
		<path style="opacity:0.5;fill:#FFFFFF;" d="M259.666,409.654h-91.584c-0.859,0-1.556,0.697-1.556,1.556v4.97h94.695v-4.97
			C261.221,410.35,260.525,409.654,259.666,409.654z"/>
		<path style="fill:#263238;" d="M264.077,414.297H163.671c-0.509,0-0.921,0.413-0.921,0.921v1.917h102.249v-1.917
			C264.998,414.71,264.586,414.297,264.077,414.297z"/>
		<path style="opacity:0.6;fill:#FFFFFF;" d="M264.077,414.297H163.671c-0.509,0-0.921,0.413-0.921,0.921v1.917h102.249v-1.917
			C264.998,414.71,264.586,414.297,264.077,414.297z"/>
		<rect x="166.526" y="331.056" style="fill:#263238;" width="94.695" height="2.534"/>
		<rect x="166.526" y="331.056" style="opacity:0.6;fill:#FFFFFF;" width="94.695" height="2.534"/>
		<path style="opacity:0.2;fill:#FFFFFF;" d="M181.488,404.036L181.488,404.036c-0.565,0-1.022-0.458-1.022-1.022v-66.798
			c0-0.565,0.458-1.022,1.022-1.022l0,0c0.565,0,1.022,0.458,1.022,1.022v66.798C182.511,403.578,182.053,404.036,181.488,404.036z"
			/>
		<path style="opacity:0.2;fill:#FFFFFF;" d="M209.67,404.036L209.67,404.036c-0.565,0-1.022-0.458-1.022-1.022v-66.798
			c0-0.565,0.458-1.022,1.022-1.022l0,0c0.565,0,1.022,0.458,1.022,1.022v66.798C210.692,403.578,210.235,404.036,209.67,404.036z"
			/>
		<path style="opacity:0.2;fill:#FFFFFF;" d="M237.852,404.036L237.852,404.036c-0.565,0-1.022-0.458-1.022-1.022v-66.798
			c0-0.565,0.458-1.022,1.022-1.022l0,0c0.565,0,1.022,0.458,1.022,1.022v66.798C238.874,403.578,238.416,404.036,237.852,404.036z"
			/>
		<path style="opacity:0.1;" d="M177.955,338.398c0,0,8.477,3.54,15.573,0v-4.807h-15.573V338.398z"/>
		<path style="opacity:0.1;" d="M206.087,338.345c0,0,8.477,3.54,15.573,0v-4.807h-15.573V338.345z"/>
		<path style="opacity:0.1;" d="M234.22,338.291c0,0,8.477,3.54,15.573,0v-4.807H234.22V338.291z"/>
	</g>
</g>
<g id="Microscope">
	<g>
		<path style="fill:#407BFF;" d="M91.922,410.875l13.671-23.759c1.503-2.612,4.345-4.16,7.354-4.005l0,0
			c4.136,0.212,7.43,3.542,7.595,7.681l0.804,20.083H91.922z"/>
		<path style="opacity:0.4;fill:#FFFFFF;" d="M91.922,410.875l13.671-23.759c1.503-2.612,4.345-4.16,7.354-4.005l0,0
			c4.136,0.212,7.43,3.542,7.595,7.681l0.804,20.083H91.922z"/>
		<g>
			<polygon style="fill:#263238;" points="142.839,388.443 146.394,393.78 150.703,393.251 165.384,377.84 161.076,378.369 			"/>
			<polygon style="fill:#263238;" points="132.101,368.082 150.486,357.986 138.326,372.271 134.843,372.271 			"/>
			<g>
				<path style="fill:#407BFF;" d="M126.945,369.073l10.247-5.796l-1.523-2.787l-21.454,11.744c-0.03,2.237-1.162,4.316-3.024,5.556
					l-3.968,2.642c-1.301,0.78-2.95,0.666-4.13-0.287c-7.7-6.214-13.329-14.624-16.138-24.112c-0.555-1.876,0.247-3.889,1.94-4.868
					l2.671-1.545c2.442-1.412,5.44-1.461,7.927-0.13l0.457,0.245l5.483,0.045l-3.129-37.182h-3.621l-16.121,7.712
					c0,0-14.223,27.362-1.809,53.018c12.413,25.656,46.197,31.801,46.197,31.801l8.91-5.086l-8.955-18.155L126.945,369.073z"/>
				<path style="opacity:0.5;fill:#FFFFFF;" d="M126.945,369.073l10.247-5.796l-1.523-2.787l-21.454,11.744
					c-0.03,2.237-1.162,4.316-3.024,5.556l-3.968,2.642c-1.301,0.78-2.95,0.666-4.13-0.287c-7.7-6.214-13.329-14.624-16.138-24.112
					c-0.555-1.876,0.247-3.889,1.94-4.868l2.671-1.545c2.442-1.412,5.44-1.461,7.927-0.13l0.457,0.245l5.483,0.045l-3.129-37.182
					h-3.621l-16.121,7.712c0,0-14.223,27.362-1.809,53.018c12.413,25.656,46.197,31.801,46.197,31.801l8.91-5.086l-8.955-18.155
					L126.945,369.073z"/>
			</g>
			<g>
				<path style="fill:#263238;" d="M134.157,330.641l5.699,8.575c0,0-0.483,1.578-2.285,2.668c-1.92,1.161-3.426,1.161-3.426,1.161
					l-6.816-8.359C127.328,334.687,130.137,329.643,134.157,330.641z"/>
				<path style="fill:#263238;" d="M137.698,317.791l13.016,4.519c0,0,0.855,1.527,0.24,4.056c-0.462,1.9-2.076,2.588-2.076,2.588
					l-12.378-2.699C136.501,326.256,134.266,321.194,137.698,317.791z"/>
				<polygon style="fill:#263238;" points="129.787,331.868 135.245,330.999 137.895,327.165 135.65,319.179 				"/>
				<polygon style="opacity:0.1;fill:#FFFFFF;" points="129.787,331.868 135.245,330.999 137.895,327.165 135.65,319.179 				"/>
				<g>
					<path style="fill:#263238;" d="M122.706,333.859c0,0,3.585-0.919,8.535-9.273c3.493-5.895,3.662-11.538,3.662-11.538
						l4.873,2.906c0,0-1.148,6.486-3.99,11.579c-3.531,6.327-8.736,9.629-8.736,9.629L122.706,333.859z"/>
					<path style="fill:#263238;" d="M134.902,313.049c0,0-2.576,0.183-6.888,5.573c-4.312,5.39-6.307,12.724-5.309,15.237
						l5.381,1.292l8.624-13.504L134.902,313.049z"/>
					<path style="opacity:0.2;fill:#FFFFFF;" d="M122.706,333.859c0,0,3.585-0.919,8.535-9.273
						c3.493-5.895,3.662-11.538,3.662-11.538l4.873,2.906c0,0-1.148,6.486-3.99,11.579c-3.531,6.327-8.736,9.629-8.736,9.629
						L122.706,333.859z"/>
				</g>
				<g>
					<path style="fill:#407BFF;" d="M131.154,319.415L131.154,319.415c-1.157,3.726-3.441,7.001-6.538,9.374l0,0
						c-1.271,0.974-2.799,1.556-4.396,1.675l-5.345,0.397l-20.706-27.582l-1.686-2.255l1.709-5.148l-16.027-21.698l9.687-7.292
						l15.599,22.279l5.828,0.499l1.382,1.88L131.154,319.415z"/>
					<path style="opacity:0.5;fill:#FFFFFF;" d="M131.154,319.415L131.154,319.415c-1.157,3.726-3.441,7.001-6.538,9.374l0,0
						c-1.271,0.974-2.799,1.556-4.396,1.675l-5.345,0.397l-20.706-27.582l-1.686-2.255l1.709-5.148l-16.027-21.698l9.687-7.292
						l15.599,22.279l5.828,0.499l1.382,1.88L131.154,319.415z"/>
					<path style="fill:#263238;" d="M110.663,291.543c0,0-1.452,2.939-7.068,6.89c-6.249,4.408-9.424,4.847-9.424,4.847
						l-1.689-2.255l1.714-5.151L78.17,274.181l9.686-7.296l15.596,22.276l5.826,0.498L110.663,291.543z"/>
					<path style="opacity:0.2;fill:#FFFFFF;" d="M110.663,291.543c0,0-1.452,2.939-7.068,6.89c-6.249,4.408-9.424,4.847-9.424,4.847
						l-1.689-2.255l1.714-5.151L78.17,274.181l9.686-7.296l15.596,22.276l5.826,0.498L110.663,291.543z"/>
				</g>
			</g>
			<polygon style="fill:#263238;" points="115.087,340.43 121.865,352.515 123.324,351.671 115.863,339.467 			"/>
			<polygon style="opacity:0.2;fill:#FFFFFF;" points="115.087,340.43 121.865,352.515 123.324,351.671 115.863,339.467 			"/>
			<polygon style="fill:#263238;" points="135.185,396.447 165.409,379.102 167.141,382.33 137.67,399.408 			"/>
			<polygon style="opacity:0.1;fill:#FFFFFF;" points="135.185,396.447 165.409,379.102 167.141,382.33 137.67,399.408 			"/>
			<polygon style="fill:#263238;" points="150.1,354.198 153.109,359.692 138.616,367.642 134.748,362.311 			"/>
			<polygon style="opacity:0.05;fill:#FFFFFF;" points="150.1,354.198 153.109,359.692 138.616,367.642 134.748,362.311 			"/>
			<polygon style="fill:#263238;" points="135.584,368.082 153.969,357.986 156.323,362.231 138.326,372.271 			"/>
			<polygon style="opacity:0.1;fill:#FFFFFF;" points="135.584,368.082 153.969,357.986 156.323,362.231 138.326,372.271 			"/>
			<path style="fill:#407BFF;" d="M87.628,320.31l16.121-7.712l15.416,28.921l-14.15,8.217l-0.457-0.245
				c-2.487-1.331-5.485-1.282-7.927,0.13l-2.671,1.545c-1.693,0.979-2.495,2.992-1.94,4.868l0,0
				c2.81,9.488,8.438,17.898,16.138,24.112l0,0c1.18,0.953,2.83,1.068,4.13,0.287l3.968-2.642c1.862-1.24,2.994-3.319,3.024-5.556
				l0,0l21.454-11.744l1.523,2.787l-10.247,5.796l-0.041,12.815l8.955,18.155l-8.91,5.086c0,0-33.784-6.145-46.197-31.801
				C73.404,347.672,87.628,320.31,87.628,320.31z"/>
			<path style="opacity:0.7;fill:#FFFFFF;" d="M87.628,320.31l16.121-7.712l15.416,28.921l-14.15,8.217l-0.457-0.245
				c-2.487-1.331-5.485-1.282-7.927,0.13l-2.671,1.545c-1.693,0.979-2.495,2.992-1.94,4.868l0,0
				c2.81,9.488,8.438,17.898,16.138,24.112l0,0c1.18,0.953,2.83,1.068,4.13,0.287l3.968-2.642c1.862-1.24,2.994-3.319,3.024-5.556
				l0,0l21.454-11.744l1.523,2.787l-10.247,5.796l-0.041,12.815l8.955,18.155l-8.91,5.086c0,0-33.784-6.145-46.197-31.801
				C73.404,347.672,87.628,320.31,87.628,320.31z"/>
			<path style="fill:#263238;" d="M111.789,340.907c0.377,2.606-1.429,5.024-4.035,5.401c-2.606,0.377-5.024-1.429-5.402-4.035
				c-0.377-2.606,1.429-5.024,4.035-5.401C108.993,336.495,111.411,338.302,111.789,340.907z"/>
			<polygon style="fill:#263238;" points="147.148,387.914 150.703,393.251 168.67,383.057 165.384,377.84 			"/>
			<path style="fill:#263238;" d="M112.812,318.402c0.644,4.448-2.44,8.577-6.888,9.221c-4.448,0.645-8.577-2.44-9.221-6.887
				c-0.645-4.449,2.439-8.577,6.888-9.221C108.04,310.869,112.168,313.953,112.812,318.402z"/>
			<path style="opacity:0.1;fill:#FFFFFF;" d="M111.789,340.907c0.377,2.606-1.429,5.024-4.035,5.401
				c-2.606,0.377-5.024-1.429-5.402-4.035c-0.377-2.606,1.429-5.024,4.035-5.401C108.993,336.495,111.411,338.302,111.789,340.907z"
				/>
			<polygon style="opacity:0.2;fill:#FFFFFF;" points="147.148,387.914 150.703,393.251 168.67,383.057 165.384,377.84 			"/>
			<path style="opacity:0.2;fill:#FFFFFF;" d="M112.812,318.402c0.644,4.448-2.44,8.577-6.888,9.221
				c-4.448,0.645-8.577-2.44-9.221-6.887c-0.645-4.449,2.439-8.577,6.888-9.221C108.04,310.869,112.168,313.953,112.812,318.402z"/>
			<path style="opacity:0.5;fill:#FFFFFF;" d="M108.785,318.985c0.322,2.224-1.22,4.288-3.444,4.611
				c-2.224,0.322-4.288-1.22-4.61-3.444c-0.323-2.225,1.219-4.288,3.444-4.611C106.399,315.219,108.463,316.761,108.785,318.985z"/>
			<polygon style="fill:#263238;" points="107.769,365.632 112.226,373.155 119.827,373.155 164.361,338.11 156.761,338.11 			"/>
			<polygon style="fill:#263238;" points="115.369,365.632 119.827,373.155 169.572,345.606 164.361,338.11 			"/>
			<polygon style="opacity:0.2;fill:#FFFFFF;" points="115.369,365.632 119.827,373.155 169.572,345.606 164.361,338.11 			"/>
		</g>
		<rect x="124.47" y="405.71" style="fill:#263238;" width="44.292" height="5.165"/>
		<rect x="124.47" y="405.71" style="opacity:0.1;fill:#FFFFFF;" width="44.292" height="5.165"/>
		<path style="fill:#407BFF;" d="M100.367,410.875l13.671-23.759c1.503-2.612,4.345-4.16,7.354-4.005l0,0
			c4.136,0.212,7.43,3.542,7.595,7.681l0.804,20.083H100.367z"/>
		<path style="opacity:0.5;fill:#FFFFFF;" d="M100.367,410.875l13.671-23.759c1.503-2.612,4.345-4.16,7.354-4.005l0,0
			c4.136,0.212,7.43,3.542,7.595,7.681l0.804,20.083H100.367z"/>
		<path style="fill:#263238;" d="M126.114,391.866c0,2.633-2.134,4.767-4.767,4.767c-2.632,0-4.767-2.135-4.767-4.767
			c0-2.633,2.135-4.767,4.767-4.767C123.979,387.099,126.114,389.233,126.114,391.866z"/>
		<rect x="82.039" y="410.092" style="fill:#263238;" width="96.27" height="7.043"/>
		<path style="opacity:0.1;fill:#FFFFFF;" d="M126.114,391.866c0,2.633-2.134,4.767-4.767,4.767c-2.632,0-4.767-2.135-4.767-4.767
			c0-2.633,2.135-4.767,4.767-4.767C123.979,387.099,126.114,389.233,126.114,391.866z"/>
		<rect x="82.039" y="410.092" style="opacity:0.2;fill:#FFFFFF;" width="96.27" height="7.043"/>
		<rect x="82.039" y="410.092" style="opacity:0.2;fill:#FFFFFF;" width="25.73" height="7.043"/>
		<path style="fill:#263238;" d="M87.873,266.875c0.358,0.482-1.531,2.491-4.22,4.488c-2.688,1.997-5.158,3.225-5.516,2.743
			c-0.358-0.482,1.531-2.492,4.22-4.488C85.046,267.621,87.515,266.392,87.873,266.875z"/>
	</g>
</g>
<g id="Baby">
	<g>
		<polygon style="fill:#407BFF;" points="346.845,219.867 350.453,227.236 354.06,219.867 		"/>
		<path style="fill:#407BFF;" d="M382.373,189.283c0,17.63-14.29,31.92-31.92,31.92c-17.63,0-31.92-14.29-31.92-31.92
			s14.29-31.92,31.92-31.92c12.98,0,24.15,7.74,29.14,18.86c0.69,1.54,1.26,3.15,1.71,4.82
			C382.003,183.673,382.373,186.433,382.373,189.283z"/>
		<path style="opacity:0.5;fill:#FFFFFF;" d="M381.302,181.043c-1.31-1.98-3-3.54-4.9-4.47c-2.43-1.19-6.79-1.87-8.86,1.08
			c-1.03,1.47-1.1,3.46-1.04,5.04c0.01,0.41,0.03,0.82,0.05,1.23c0.1,1.99,0.21,4.05-0.46,6.08c-0.9,2.76-3.19,4.29-5.68,4.78
			c0.01,0.07,0.01,0.12-0.01,0.12c1.08,2.01,2.19,4.14,2.61,7.56c0.5,4.07-3.04,12.53-16.13,12.01
			c-15.56-0.62-21.54-20.38-18.33-33.09c3.69-14.59,13.35-17.15,18.14-17.31c5.23-0.17,10.83,3.75,11.98,9.81
			c1.08,5.67-1.19,9.28-0.57,14.68c0.2,1.74,0.69,3.1,1.3,4.37c2.08-0.22,4.07-1.35,4.79-3.55c0.55-1.68,0.46-3.47,0.37-5.36
			c-0.03-0.42-0.05-0.84-0.06-1.26c-0.07-1.89,0.04-4.3,1.4-6.25c2.49-3.57,7.61-3.57,11.37-1.74c0.82,0.4,1.59,0.88,2.32,1.45
			C380.283,177.763,380.853,179.373,381.302,181.043z"/>
		<path style="opacity:0.5;fill:#FFFFFF;" d="M345.907,165.219c-6.759,0.571-11.046,8.106-8.497,14.034
			c0.015,0.034,0.031,0.064,0.046,0.097c-1.941,2.9-5.682,9.722-5.036,18.489c0.843,11.439,7.114,13.396,11.464,13.693
			c5.863,0.401,9.318-6.43,9.318-6.43s-0.117,1.541-0.011,3.186c0.106,1.645,1.749,1.573,2.491,2.027
			c0.742,0.454,1.102,0.017,2.512-0.018c1.41-0.035,0.709-1.853-1.631-2.95c0,0,4.225-8.273-0.244-12.008
			c-2.518-2.104-6.416,0.665-6.416,0.665s-0.467-1.611-1.459-3.823c0,0,3.933,1.731,7.129,0.776c3.197-0.955,0.43-5.431-1.648-6.349
			c0,0-0.139-1.911-1.495-1.831c-1.356,0.08-2.335,0.616-2.442,1.374c-0.107,0.757,1.68,1.602,1.68,1.602l0.391,1.227
			c0,0-1.621-1.35-3.153-2.591c1.468-0.417,1.294-1.329,1.294-1.329c0.715-0.131,0.642-0.685,0.642-0.685
			c0.694,0.141,0.778-0.841,0.778-0.841s1.496,0.034,0.837-1.222c-0.658-1.256-0.563-1.929,1.545-3.036
			c2.108-1.107,3.469-3.541,2.297-7.16C355.214,168.759,351.829,164.719,345.907,165.219z"/>
		<path style="fill:#407BFF;" d="M338.26,189.393c0.908-1.518,2.687-0.962,3.618,0.196c0.9-1.182,2.665-1.783,3.612-0.289
			c1.596,2.519-1.596,4.913-3.106,5.854c-0.171,0.108-0.313,0.197-0.431,0.267c-0.12-0.067-0.264-0.152-0.437-0.256
			C339.982,194.263,336.729,191.952,338.26,189.393z"/>
	</g>
</g>
<g id="Fertilization">
	<g>
		
			<circle style="fill:none;stroke:#407BFF;stroke-linecap:round;stroke-linejoin:round;stroke-miterlimit:10;stroke-dasharray:12,30,50,5,25,5;" cx="196.374" cy="182.456" r="90.882"/>
		<circle style="fill:#407BFF;" cx="196.374" cy="182.456" r="85.635"/>
		<path style="opacity:0.4;" d="M282.013,182.457c0,47.29-38.34,85.63-85.64,85.63c-47.29,0-85.63-38.34-85.63-85.63
			c0-47.3,38.34-85.64,85.63-85.64c24.32,0,46.28,10.14,61.86,26.42c1.6,1.66,3.12,3.39,4.57,5.17
			C274.813,143.147,282.013,161.957,282.013,182.457z"/>
		<path style="fill:#407BFF;" d="M177.238,124.422c34.547-6.037,40.511,21.343,41.191,29.905c0.681,8.563,13.617,2.78,26.213,13.841
			c12.596,11.062,12.766,44.005-10.723,62.729c-23.489,18.723-72.935,19.757-91.999-20.753
			C122.856,169.633,142.174,130.549,177.238,124.422z"/>
		<path style="opacity:0.4;fill:#FFFFFF;" d="M177.238,124.422c34.547-6.037,40.511,21.343,41.191,29.905
			c0.681,8.563,13.617,2.78,26.213,13.841c12.596,11.062,12.766,44.005-10.723,62.729c-23.489,18.723-72.935,19.757-91.999-20.753
			C122.856,169.633,142.174,130.549,177.238,124.422z"/>
		<path style="opacity:0.4;fill:#407BFF;" d="M193.766,129.187c17.468,3.148,20.578,13.874,17.854,26.001
			c-2.723,12.127,0.471,12.131,5.512,12.98c5.041,0.849,11.647-6.528,22.743,1.701c11.096,8.229,10.894,30.859,4.426,41.727
			c-6.468,10.868-35.332,33.805-61.884,25.632s-41.821-30.674-42.672-56.296C138.894,155.309,157.869,122.719,193.766,129.187z"/>
		<path style="fill:#407BFF;" d="M179.016,164.625c0.704-0.125,1.424-0.197,2.131-0.262c1.537-0.142,3.095-0.271,4.618-0.018
			c1.742,0.289,3.367,1.068,4.877,1.985c2.812,1.708,5.375,4.012,6.747,7.002c2.436,5.307,9.545,5.653,13.518,10.372
			c4.694,5.575,3.154,12.292-0.559,17.998c-10.38,15.951-34.754,13.189-41.813-4.632c-1.955-4.935-3.029-10.987-2.278-16.292
			c0.726-5.135,4.361-9.154,7.643-13.007c0.612-0.719,1.234-1.446,2.011-1.983C176.832,165.149,177.905,164.822,179.016,164.625z"/>
		<g>
			<path style="fill:#263238;" d="M262.803,128.406l-43.84,37.97l-14.34,3.3c0.05-0.04,0.11-0.09,0.17-0.14l53.44-46.3
				C259.833,124.897,261.353,126.627,262.803,128.406z"/>
			<path style="opacity:0.9;fill:#FFFFFF;" d="M262.803,128.406l-43.84,37.97l-14.34,3.3c0.05-0.04,0.11-0.09,0.17-0.14l53.44-46.3
				C259.833,124.897,261.353,126.627,262.803,128.406z"/>
			<path style="fill:#263238;" d="M218.966,166.376c2.713-2.35-12.253,1.494-14.34,3.302
				C202.538,171.486,216.888,168.175,218.966,166.376z"/>
			<path style="opacity:0.6;fill:#FFFFFF;" d="M218.966,166.376c2.713-2.35-12.253,1.494-14.34,3.302
				C202.538,171.486,216.888,168.175,218.966,166.376z"/>
		</g>
		<g>
			<g>
				<g style="opacity:0.4;">
					<path style="fill:#FFFFFF;" d="M190.474,184.83c1.593-1.718,3.326-3.094,5.21-4.332c1.873-1.23,3.89-2.232,5.993-2.971
						c2.076-0.686,4.064-1.516,5.9-2.681c0.915-0.578,1.776-1.245,2.544-2.011c0.37-0.393,0.739-0.797,1.024-1.258
						c0.276-0.452,0.56-0.966,0.469-1.517c0.13,0.546-0.122,1.096-0.372,1.574c-0.259,0.491-0.604,0.926-0.955,1.354
						c-0.728,0.834-1.561,1.575-2.454,2.229c-1.781,1.314-3.801,2.323-5.83,3.15c-1.976,0.85-3.839,1.942-5.543,3.238
						c-1.695,1.278-3.309,2.777-4.59,4.365L190.474,184.83z"/>
				</g>
			</g>
			<g>
				<path style="fill:#407BFF;" d="M191.498,182.147c0,0,3.134-2.006,4.802-2.164c0,0,0.965,0.416,1.101,1.247
					c0,0-3.281,2.684-3.667,4.716C193.348,187.978,189.233,184.714,191.498,182.147z"/>
				<g style="opacity:0.9;">
					<path style="fill:#FFFFFF;" d="M191.498,182.147c0,0,3.134-2.006,4.802-2.164c0,0,0.965,0.416,1.101,1.247
						c0,0-3.281,2.684-3.667,4.716C193.348,187.978,189.233,184.714,191.498,182.147z"/>
				</g>
			</g>
			<g>
				<path style="fill:#FFFFFF;" d="M194.123,182.795c1.026,1.162,0.536,3.27-1.094,4.709c-1.63,1.439-3.783,1.663-4.809,0.501
					c-1.026-1.162-0.536-3.27,1.094-4.709S193.098,181.633,194.123,182.795z"/>
			</g>
		</g>
		<g style="opacity:0.2;">
			<path style="fill:#FFFFFF;" d="M221.442,183.999c1.264,0.4,2.698,0.445,3.87-0.176c1.172-0.621,1.977-2.014,1.653-3.3
				c-0.236-0.939-1.017-1.673-1.905-2.059c-0.888-0.386-1.878-0.468-2.847-0.47c-0.728-0.001-1.485,0.048-2.124,0.397
				c-0.639,0.349-1.124,1.076-0.978,1.789c0.163,0.794,0.27,2.126,0.27,2.126C219.654,183.19,220.56,183.719,221.442,183.999z"/>
			<path style="fill:#FFFFFF;" d="M232.887,195.145c-1.017-1.003-2.715-1.539-3.876-0.707c-0.555,0.398-0.869,1.284-0.37,1.75
				c0.326,0.305,0.851,0.293,1.199,0.572l-0.575-0.241c0.937,0.534,1.988,0.865,3.062,0.966c0.25,0.023,0.513,0.033,0.742-0.072
				c0.407-0.186,0.588-0.699,0.507-1.139S233.206,195.459,232.887,195.145z"/>
			<path style="fill:#FFFFFF;" d="M240.151,180.957c-0.611-0.786-1.364-1.495-2.29-1.861c-0.925-0.366-2.045-0.342-2.852,0.24
				c-1.023,0.737-1.314,2.16-1.15,3.41c0.253,1.931,1.441,3.625,3.07,4.659c1.056,0.67,3.739,2.311,4.871,1.187
				c0.397-0.395,0.463-1.008,0.459-1.568C242.242,184.845,241.489,182.677,240.151,180.957z"/>
			<path style="fill:#FFFFFF;" d="M227.977,206.858c-1.611-1.266-3.933-1.027-5.889-0.416c-2.152,0.672-3.26,3.27-0.756,4.513
				c1.739,0.864,4.68-0.639,6.179-1.458c0.556-0.304,1.154-0.741,1.189-1.373C228.729,207.618,228.375,207.17,227.977,206.858z"/>
			<path style="fill:#FFFFFF;" d="M238.345,209.778c-0.591-0.078-1.241,0.191-1.414,0.753c-0.203,0.662,0.319,1.335,0.906,1.703
				c0.421,0.264,0.925,0.45,1.411,0.347c1.676-0.356,0.394-2.29-0.516-2.695C238.611,209.832,238.48,209.796,238.345,209.778z"/>
			<path style="fill:#FFFFFF;" d="M210.533,215.159c-0.371-0.925-0.874-1.848-1.704-2.398c-0.851-0.564-1.959-0.656-2.947-0.4
				c-0.988,0.256-1.87,0.83-2.634,1.507c-1.804,1.598-3.038,3.826-3.435,6.202c-0.405,2.42,0.271,5.277,2.421,6.46
				c0,0,4.111-2.972,6.584-3.963c1.026-0.411,2.083-1.023,2.482-2.054c0.243-0.627,0.206-1.325,0.117-1.991
				C211.262,217.371,210.965,216.238,210.533,215.159z"/>
			<path style="fill:#FFFFFF;" d="M223.895,222.32c-0.858-0.632-2.077-0.479-3.048-0.039c-0.305,0.138-0.614,0.316-0.775,0.609
				c-0.222,0.404-0.091,0.937,0.224,1.273c0.315,0.336,0.776,0.501,1.233,0.564l1.277-0.463c0.37-0.074,0.75-0.153,1.064-0.363
				c0.314-0.21,0.547-0.586,0.475-0.956C224.295,222.688,224.107,222.476,223.895,222.32z"/>
			<path style="fill:#FFFFFF;" d="M186.332,217.497c-0.634-0.329-1.373-0.388-2.087-0.379c-2.303,0.027-5.864,0.713-7.431,2.608
				c-1.141,1.379-0.936,3.576,0.531,4.616c2.581,1.829,10.475,1.459,11.175-2.279c0.154-0.824-0.093-1.673-0.434-2.439
				C187.705,218.768,187.163,217.929,186.332,217.497z"/>
			<path style="fill:#FFFFFF;" d="M196.251,228.601c-1.206-0.132-2.446-0.159-3.61,0.179c-0.593,0.173-1.173,0.449-1.593,0.902
				c-0.42,0.453-0.658,1.104-0.508,1.704c0.15,0.599,0.745,1.089,1.358,1.015l4.361-1.044c1.021,0,2.042-0.222,2.972-0.646
				c0.238-0.109,0.509-0.302,0.464-0.56c-0.019-0.108-0.092-0.197-0.168-0.277C198.705,229.005,197.441,228.732,196.251,228.601z"/>
			<path style="fill:#FFFFFF;" d="M158.971,204.568c-0.658-0.305-1.335-0.567-2.028-0.781c-0.297-0.092-0.605-0.176-0.913-0.14
				c-0.532,0.063-0.971,0.487-1.178,0.981c-0.206,0.494-0.214,1.049-0.164,1.582c0.189,2.023,1.145,3.887,2.154,5.651
				c0.434,0.759,0.892,1.523,1.543,2.108c1.71,1.535,4.168,0.733,5.766-0.575c0.92-0.753,1.55-1.985,1.249-3.135
				c-0.16-0.609-0.556-1.126-0.97-1.601C162.923,206.932,161.048,205.532,158.971,204.568z"/>
			<path style="fill:#FFFFFF;" d="M148.752,184.082c-0.461-0.195-1.014-0.34-1.443-0.081c-0.424,0.255-0.559,0.8-0.626,1.29
				c-0.322,2.355-2.263,5.087-2.263,5.087c0.017,0.342,0.296,0.607,0.571,0.811c1.771,1.311,4.237,1.618,6.275,0.78
				c0.622-0.256,1.226-0.632,1.569-1.211c0.568-0.96,0.271-2.206-0.257-3.189C151.745,186.02,150.372,184.768,148.752,184.082z"/>
			<path style="fill:#FFFFFF;" d="M157.089,170.231c-0.014,0.248,0.075,0.493,0.284,0.624c0.159,0.1,0.39,0.157,0.418,0.343
				c0.017,0.115-0.059,0.22-0.086,0.333c-0.098,0.41,0.426,0.666,0.84,0.748c0.626,0.125,1.271,0.229,1.899,0.114
				c3.221-0.594-0.196-3.197-1.934-3.148c-0.441,0.013-0.912,0.121-1.206,0.45C157.175,169.84,157.1,170.037,157.089,170.231z"/>
			<path style="fill:#FFFFFF;" d="M150.818,174.49c0.889-1.65-0.489-4.126-1.585-5.37c-0.574-0.651-1.382-1.245-2.237-1.092
				c-0.944,0.168-1.493,1.15-1.815,2.052c-0.322,0.903-0.611,1.916-1.415,2.439c-0.167,0.109-0.361,0.201-0.454,0.377
				c-0.115,0.217-0.035,0.488,0.089,0.701c0.343,0.593,0.968,0.958,1.576,1.273c0.798,0.414,1.63,0.793,2.519,0.934
				c0.888,0.14,1.848,0.019,2.584-0.498C150.412,175.07,150.653,174.794,150.818,174.49z"/>
			<path style="fill:#FFFFFF;" d="M190.862,137.886c-0.36-1.646-1.518-2.998-2.754-4.142c-0.461-0.426-0.961-0.846-1.567-1.007
				c-0.487-0.129-1.003-0.078-1.501,0.002c-2.435,0.391-4.757,1.467-6.628,3.074c-1.018,0.874-1.964,2.08-1.809,3.413
				c0.108,0.925,0.735,1.711,1.444,2.315c2.123,1.81,5.228,2.386,7.858,1.458c0,0,1.063-1.414,3.149-2.077
				c0.488-0.155,0.991-0.339,1.348-0.706C190.978,139.625,191.038,138.693,190.862,137.886z"/>
			<path style="fill:#FFFFFF;" d="M195.458,149.103c0,0,0.918,0.842,2.072,0.581c0.539-0.122,1.087-0.247,1.568-0.52
				c0.481-0.272,0.894-0.718,0.991-1.262c0.115-0.642-0.223-1.283-0.652-1.774c-1.095-1.257-3.031-1.86-4.506-1.082
				c-0.298,0.157-0.574,0.369-0.752,0.655c-0.146,0.235-0.219,0.509-0.246,0.784C193.829,147.559,194.473,148.665,195.458,149.103z"
				/>
			<path style="fill:#FFFFFF;" d="M200.3,138.995l-0.337-0.576c0.53,0.32,1.164,0.462,1.78,0.4c0.127-0.013,0.258-0.036,0.361-0.112
				c0.303-0.222,0.172-0.698-0.013-1.025c-0.339-0.599-0.783-1.165-1.388-1.493c-0.605-0.328-1.396-0.376-1.963,0.015
				s-0.785,1.268-0.355,1.807C198.837,138.578,199.717,138.562,200.3,138.995z"/>
			<path style="fill:#FFFFFF;" d="M197.327,164.978c1.928-0.487,4.6,1.243,6.452,0.824c0.26-0.059,0.527-0.143,0.718-0.329
				c0.258-0.252,0.326-0.639,0.332-0.999c0.025-1.564-0.877-3.01-1.994-4.106c-1.106-1.085-2.507-1.944-4.048-2.1
				c-1.914-0.194-3.898,0.805-4.881,2.458c-0.984,1.653-0.916,3.873,0.166,5.463c0.115,0.169,0.246,0.336,0.429,0.427
				c0.542,0.272,1.139-0.241,1.5-0.73C196.373,165.382,196.825,165.105,197.327,164.978z"/>
			<path style="fill:#FFFFFF;" d="M171.408,152.475c-0.081-0.043-0.162-0.084-0.244-0.123c-0.641-0.31-1.38-0.532-2.061-0.323
				c-4.058,1.243,1.253,4.137,2.731,4.387C176.165,157.149,173.931,153.807,171.408,152.475z"/>
			<path style="fill:#FFFFFF;" d="M157.868,155.294c0.738-1.544,0.85-3.377,0.304-4.999c-0.105-0.312-0.241-0.627-0.49-0.842
				c-0.249-0.215-0.638-0.297-0.91-0.112c-0.175,0.12-0.27,0.322-0.355,0.516c-0.53,1.2-1.957,3.617-1.622,4.967
				C155.143,156.224,157.206,156.679,157.868,155.294z"/>
			<path style="fill:#FFFFFF;" d="M174.469,162.126c-0.449-0.44-1.199-0.424-1.822-0.267c-2.433,0.614-0.596,4.146,1.519,2.376
				c0.59-0.493,0.869-1.455,0.368-2.038C174.514,162.172,174.492,162.148,174.469,162.126z"/>
			<path style="fill:#FFFFFF;" d="M160.186,195.045c-0.002,0.016-0.003,0.032-0.003,0.049c-0.021,1.013,2.626,1.821,2.799,0.61
				c0.149-1.045-1.608-1.782-2.355-1.288C160.406,194.562,160.212,194.785,160.186,195.045z"/>
			<path style="fill:#FFFFFF;" d="M169.661,224.889c-0.298,0.049-0.596,0.185-0.767,0.433c-0.171,0.249-0.175,0.623,0.046,0.829
				l1.873,0.525c0.426-0.26,0.488-0.916,0.191-1.317C170.708,224.958,170.154,224.807,169.661,224.889z"/>
		</g>
	</g>
</g>
<g id="Character">
	<g>
		<g>
			<path style="fill:#407BFF;" d="M285.61,350.432h116.707v-7.064c0-2.491-2.02-4.511-4.511-4.511H290.121
				c-2.491,0-4.511,2.02-4.511,4.511V350.432z"/>
			<path style="fill:#263238;" d="M285.209,344.815h27.001h63.552h27.002c1.255,0,2.273,1.018,2.273,2.273v70.047h-5.58V361.54
				c0-1.218-0.987-2.206-2.206-2.206h-19.216v57.801h-5.58V361.54c0-1.218-0.987-2.206-2.206-2.206h-52.527
				c-1.218,0-2.206,0.988-2.206,2.206v55.595h-5.58v-57.801h-19.216c-1.218,0-2.206,0.988-2.206,2.206v55.595h-5.58v-70.047
				C282.936,345.833,283.953,344.815,285.209,344.815z"/>
			<path style="opacity:0.5;fill:#FFFFFF;" d="M285.209,344.815h27.001h63.552h27.002c1.255,0,2.273,1.018,2.273,2.273v70.047h-5.58
				V361.54c0-1.218-0.987-2.206-2.206-2.206h-19.216v57.801h-5.58V361.54c0-1.218-0.987-2.206-2.206-2.206h-52.527
				c-1.218,0-2.206,0.988-2.206,2.206v55.595h-5.58v-57.801h-19.216c-1.218,0-2.206,0.988-2.206,2.206v55.595h-5.58v-70.047
				C282.936,345.833,283.953,344.815,285.209,344.815z"/>
			<path style="opacity:0.2;fill:#FFFFFF;" d="M282.936,347.088v70.047h5.58V361.54c0-1.218,0.988-2.206,2.206-2.206h79.528
				c1.218,0,2.206,0.988,2.206,2.206v55.595h5.58v-70.047c0-1.256-1.018-2.273-2.273-2.273h-90.553
				C283.953,344.815,282.936,345.833,282.936,347.088z"/>
		</g>
		<g>
			<g>
				<path style="fill:#263238;" d="M345.206,265.665c-5.708,1.247-7.367,1.993-12.857,7.652c0,0-4.739,4.865-6.736,7.341
					c-0.994,1.248-1.986,2.542-2.899,4.088c-0.456,0.794-0.906,1.635-1.309,2.665l-0.286,0.847l-0.034,0.106l-0.032,0.106
					c-0.036,0.129-0.068,0.261-0.095,0.393c-0.027,0.131-0.049,0.268-0.064,0.395l-0.026,0.33c-0.011,0.224-0.007,0.451,0.007,0.607
					c0.063,0.747,0.215,1.154,0.346,1.511c0.272,0.67,0.516,1.019,0.73,1.33c0.22,0.299,0.42,0.526,0.611,0.733
					c0.76,0.792,1.399,1.321,2.084,1.81c0.67,0.487,1.331,0.921,2.011,1.315c1.356,0.797,2.709,1.472,4.212,2.03l3.035-3.914
					c-0.775-1.229-1.654-2.402-2.471-3.521l-1.07-1.487c0.06-0.088,0.112-0.17,0.176-0.259c0.66-0.887,1.472-1.869,2.361-2.819
					c1.787-1.914,3.797-3.816,5.846-5.684c2.046-1.852,4.208-3.738,6.254-5.503l-2.731-3.376L345.206,265.665z"/>
				<path style="opacity:0.2;fill:#FFFFFF;" d="M342.268,272.357l2.73,3.38c-1.78,1.54-3.64,3.17-5.45,4.78
					c-0.27,0.24-0.54,0.48-0.8,0.72c-2.05,1.87-4.06,3.77-5.85,5.69c-0.07,0.08-0.14,0.15-0.21,0.23c-0.47,0.51-0.91,1.02-1.31,1.52
					c-0.3,0.37-0.58,0.72-0.84,1.07c-0.06,0.09-0.11,0.17-0.17,0.26l1.07,1.48c0.81,1.12,1.69,2.29,2.47,3.52l-3.04,3.92
					c-1.5-0.56-2.85-1.24-4.21-2.03c-0.68-0.4-1.34-0.83-2.01-1.32c-0.69-0.49-1.32-1.01-2.08-1.81c-0.2-0.2-0.4-0.43-0.62-0.73
					c-0.21-0.31-0.45-0.66-0.73-1.33c-0.13-0.36-0.28-0.76-0.34-1.51c-0.02-0.16-0.02-0.38-0.01-0.61l0.03-0.33
					c0.01-0.12,0.03-0.26,0.06-0.39c0.03-0.14,0.06-0.27,0.1-0.4l0.03-0.1l0.03-0.11l0.29-0.85c0.4-1.03,0.85-1.87,1.31-2.66
					c0.91-1.55,1.9-2.84,2.89-4.09c2-2.47,6.74-7.34,6.74-7.34c5.49-5.66,7.15-6.4,12.86-7.65L342.268,272.357z"/>
				<path style="opacity:0.2;" d="M339.544,280.517c-0.27,0.24-0.54,0.48-0.8,0.72c-2.05,1.87-4.06,3.77-5.85,5.69
					c-0.07,0.08-0.14,0.15-0.21,0.23c-1.45-7.05,7.32-13.84,7.32-13.84C340.484,274.657,340.224,277.527,339.544,280.517z"/>
				<path style="opacity:0.2;" d="M331.374,288.677c-0.3,0.37-0.58,0.72-0.84,1.07c-0.06,0.09-0.11,0.17-0.17,0.26
					c0,0-1.19-1.71-2.89-1.97C327.474,288.037,329.654,287.647,331.374,288.677z"/>
			</g>
			<path style="fill:#FFB573;" d="M334.239,320.203c0,0-17.48,2.74-20.406,7.031c-5.036,7.385,4.037,21.904,20.582,79.829
				l6.452-1.585c0,0-3.721-52.558-9.304-62.247c0,0,7.457,1.007,11.596,0.313C348.478,342.651,351.84,324.908,334.239,320.203z"/>
			<g>
				<path style="fill:#FFB573;" d="M308.84,369.587c3.677,9.936,7.925,22.375,12.459,38.077c0.089,0.286,0.168,0.572,0.246,0.858
					c0.089,0.306,0.178,0.601,0.266,0.907l4.682-1.143l1.764-0.434c0,0-0.069-0.69-0.217-1.922c-0.03-0.256-0.059-0.532-0.089-0.828
					v-0.01c-1.261-10.951-6.121-51.147-10.941-59.496c0,0,5.461,1.015,9.6,0.315c2.987-0.503,6.604-21.153,6.604-21.153
					s-7.609-2.188-15.416-2.188h-0.108c0,0-15.194,3.582-18.121,7.879C295.972,335.722,299.298,343.801,308.84,369.587z"/>
				<path style="fill:#407BFF;" d="M338.258,341.397l-20.65,0.76l11.14,60.34l-5.94,1.02l-3.24,0.56
					c-9.07-25.88-27.21-68.47-22.34-73.45c4.14-4.25,18.272-10.118,28.971-12.268l4.289-8.562l11.33,3.08l4.54,28.22
					L338.258,341.397z"/>
				<path style="opacity:0.6;fill:#FFFFFF;" d="M346.358,314.107v26.99l-8.1,0.3l-20.65,0.76l11.14,60.34l-5.94,1.02l-3.24,0.56
					c-9.07-25.88-27.21-68.47-22.34-73.45c4.14-4.25,18.272-10.118,28.971-12.268l4.289-8.562l11.33,3.08L346.358,314.107z"/>
				<path style="opacity:0.1;" d="M317.604,342.159l11.14,60.34l-5.94,1.02c0,0-20.902-72.567-14.263-77.163
					c7.873-5.449,23.982-6.154,23.982-6.154l5.731,21.197L317.604,342.159z"/>
			</g>
			<path style="fill:#407BFF;" d="M368.344,306.607l-27.655-0.704c0,0-3.794,6.708-4.238,8.517
				c-0.256,1.042-0.433,2.443-0.554,3.995c-5.173,1.208-20.139,4.943-23.452,8.466c-5.361,5.702,19.497,75.514,19.497,75.514
				l10.199-1.921c0,0-4.814-49.312-9.293-56.176c0,0,5.332,0.811,17.022,0.811c6.672-0.142,12.733-1.004,16.406-3.183
				C378.431,334.714,368.344,306.607,368.344,306.607z"/>
			<path style="opacity:0.6;fill:#FFFFFF;" d="M368.344,306.607l-27.655-0.704c0,0-3.794,6.708-4.238,8.517
				c-0.256,1.042-0.433,2.443-0.554,3.995c-5.173,1.208-20.139,4.943-23.452,8.466c-5.361,5.702,19.497,75.514,19.497,75.514
				l10.199-1.921c0,0-4.814-49.312-9.293-56.176c0,0,5.332,0.811,17.022,0.811c6.672-0.142,12.733-1.004,16.406-3.183
				C378.431,334.714,368.344,306.607,368.344,306.607z"/>
			<g>
				<path style="fill:#263238;" d="M373.478,273.007c-0.03,0.16-0.06,0.31-0.1,0.47c-0.17,0.7-0.34,1.38-0.5,2.06
					c-0.26,1.04-0.5,2.06-0.73,3.04c-0.17,0.76-0.33,1.5-0.49,2.22c-0.08,0.38-0.17,0.75-0.24,1.12c-0.08,0.37-0.15,0.74-0.23,1.1
					c-0.18,0.88-0.36,1.73-0.52,2.56c-0.09,0.42-0.16,0.83-0.24,1.23c-0.08,0.4-0.15,0.8-0.22,1.19c-0.94,5.2-1.43,9.45-1.6,13.16
					c-0.02,0.54,0.08,1.43,0.27,2.58c0.05,0.31,0.11,0.64,0.17,0.99c0.1,0.56,0.22,1.17,0.35,1.81c0.07,0.41,0.16,0.82,0.24,1.26
					c0.15,0.71,0.3,1.46,0.46,2.23c0.07,0.35,0.14,0.7,0.21,1.06c0.09,0.48,0.19,0.97,0.29,1.47c0.38,1.91,0.76,3.89,1.08,5.83
					c0.05,0.3,0.1,0.59,0.14,0.89c0.25,1.58,0.46,3.12,0.6,4.55c0.03,0.29,0.05,0.57,0.07,0.84c0.01,0.2,0.03,0.39,0.04,0.57
					c0.02,0.3,0.03,0.6,0.04,0.89c0.01,0.29,0.02,0.58,0.02,0.86c0,0.45-0.01,0.87-0.04,1.27c-0.03,0.39-0.08,0.76-0.13,1.1
					c0,0-8.19-4.32-23.97-5.86c-17.96,2.07-24.86-4.56-24.86-4.56l2.1-2.07c-0.09-0.24-0.17-0.48-0.25-0.73
					c-1.63-5.1-0.91-10.99,2.54-16.9c1.17-2.01,2.65-4.02,4.46-6c0.99-1.09,2.08-2.17,3.27-3.23c-1.69-2.97-1.47-8.79,0.86-12.07
					c3.05-4.28,3.68-11.42,8.91-12.33c1.46-0.25,2.97-0.49,4.43-0.67c0.25-0.03,0.52-0.06,0.79-0.09
					c4.46-0.45,11.23-0.44,16.45,0.81C370.099,266.357,374.169,268.867,373.478,273.007z"/>
				<path style="opacity:0.2;fill:#FFFFFF;" d="M373.478,273.007c-0.03,0.16-0.06,0.31-0.1,0.47c-0.17,0.7-0.34,1.39-0.5,2.06
					c-0.26,1.04-0.5,2.06-0.73,3.04c-0.17,0.76-0.33,1.5-0.49,2.22c-0.08,0.38-0.16,0.75-0.24,1.12c-0.08,0.37-0.15,0.74-0.23,1.1
					c-0.18,0.88-0.36,1.73-0.52,2.56c-0.09,0.42-0.16,0.82-0.24,1.23c-0.08,0.4-0.15,0.8-0.22,1.19c-0.94,5.2-1.43,9.45-1.6,13.16
					c-0.02,0.54,0.08,1.43,0.27,2.58c0.05,0.31,0.11,0.64,0.17,0.99c0.1,0.56,0.22,1.17,0.35,1.81c0.07,0.41,0.16,0.83,0.24,1.26
					c0.15,0.71,0.3,1.46,0.46,2.23c0.07,0.35,0.14,0.7,0.21,1.06c0.1,0.48,0.2,0.97,0.29,1.47c0.38,1.91,0.76,3.89,1.08,5.83
					c0.05,0.3,0.1,0.59,0.14,0.89c0.25,1.58,0.46,3.12,0.6,4.55c0.03,0.29,0.05,0.57,0.07,0.84c0.01,0.2,0.03,0.39,0.04,0.57
					c0.02,0.3,0.03,0.6,0.04,0.89c0.01,0.29,0.02,0.58,0.02,0.86c0,0.45-0.01,0.87-0.04,1.27c-0.03,0.39-0.07,0.76-0.13,1.1
					c0,0-8.19-4.32-23.97-5.86c-17.96,2.07-24.86-4.56-24.86-4.56l2.1-2.07c-0.09-0.24-0.17-0.48-0.25-0.73
					c-1.63-5.1-0.91-10.99,2.54-16.9c1.17-2.01,2.65-4.02,4.46-6c0.99-1.09,2.08-2.17,3.27-3.23c-1.69-2.97-1.47-8.79,0.86-12.07
					c3.05-4.28,3.68-11.42,8.91-12.33c1.46-0.25,2.97-0.49,4.43-0.67c0.25-0.03,0.52-0.06,0.79-0.09
					c4.46-0.45,11.23-0.44,16.45,0.81C370.099,266.357,374.169,268.867,373.478,273.007z"/>
				<path style="fill:#EBB376;" d="M365.173,265.254c0.653,0.209-1.728,7.367-11.955,8.595c-10.227,1.228-9.008-5.403-7.017-8.362
					C346.201,265.488,358.36,263.076,365.173,265.254z"/>
			</g>
			<path style="fill:#263238;" d="M347.217,232.125c0,0,5.494-1.66,10.6,0.638c5.106,2.298,5.599,19.322,5.216,25.543
				c-0.383,6.221-28.345,8.159-28.345,8.159s2.473-7.661-0.667-16.979C330.881,240.167,336.617,231.487,347.217,232.125z"/>
			<g>
				<path style="fill:#EBB376;" d="M362.039,265.537c0,0-4.15,0.4-11.31,7.78c-3.34-2.9-1.8-4.48-1.8-4.48
					c2.75-1.42,3.54-3.29,3.43-5.24c-0.08-1.25-0.52-2.53-1.07-3.75l6.84-9.03c-0.02,1.18,0,2.61,0.11,4.12
					C358.529,259.157,359.488,263.967,362.039,265.537z"/>
				<path style="opacity:0.2;" d="M358.238,254.937c-0.79,3.26-2.43,7.07-5.88,8.66c-0.08-1.25-0.52-2.53-1.07-3.75l6.84-9.03
					C358.108,251.997,358.129,253.427,358.238,254.937z"/>
			</g>
			<g>
				<path style="fill:#EBB376;" d="M354.633,240.944c3.086,6.447,4.523,9.103,3.281,14.189c-1.869,7.651-10.136,10.382-15.006,5.073
					c-4.383-4.779-8.693-14.518-4.224-20.666C343.087,233.483,351.547,234.497,354.633,240.944z"/>
				<path style="fill:#263238;" d="M348.088,247.188c0.282,0.53,0.249,1.123-0.074,1.325c-0.324,0.202-0.815-0.063-1.097-0.593
					c-0.282-0.53-0.249-1.123,0.075-1.326C347.314,246.393,347.805,246.658,348.088,247.188z"/>
				<path style="fill:#263238;" d="M341.666,250.932c0.283,0.53,0.249,1.123-0.074,1.325c-0.324,0.202-0.815-0.063-1.097-0.593
					s-0.249-1.123,0.074-1.325C340.893,250.137,341.384,250.402,341.666,250.932z"/>
				<path style="fill:#263238;" d="M340.728,250.279l-1.385,0.376C339.343,250.655,340.483,251.268,340.728,250.279z"/>
				<path style="fill:#D58745;" d="M344.21,250.895c0,0,0.376,2.806,0.038,4.484c1.002,0.245,1.954-0.748,1.954-0.748
					L344.21,250.895z"/>
				<path style="fill:#263238;" d="M347.17,243.842c-0.088,0.025-0.183,0.015-0.263-0.038c-1.251-0.818-2.408-0.26-2.422-0.253
					c-0.171,0.083-0.371,0.012-0.444-0.165c-0.072-0.177,0.01-0.39,0.183-0.476c0.06-0.03,1.513-0.732,3.065,0.284
					c0.154,0.101,0.194,0.32,0.089,0.489C347.327,243.764,347.252,243.818,347.17,243.842z"/>
				<path style="fill:#263238;" d="M337.173,249.045c-0.064,0.059-0.147,0.092-0.237,0.088c-0.185-0.01-0.325-0.179-0.313-0.377
					c0.117-1.99,1.453-2.847,1.511-2.882c0.161-0.1,0.365-0.043,0.456,0.129c0.091,0.171,0.034,0.391-0.126,0.492
					c-0.053,0.033-1.08,0.713-1.173,2.295C337.286,248.893,337.241,248.983,337.173,249.045z"/>
				<path style="fill:#263238;" d="M347.149,246.535l-1.384,0.376C345.765,246.911,346.904,247.524,347.149,246.535z"/>
				<path style="fill:#263238;" d="M355.457,245.39c0,0-6.917-1.031-9.174-7.529c0,0-10.469,1.489-8.937,12.03
					c0,0-4.913-6.965,2.309-12.987c7.222-6.022,22.939-0.525,18.529,12.922L355.457,245.39z"/>
				<path style="fill:#EBB376;" d="M359.453,244.822c0.026,1.684-0.678,3.171-1.593,4.082c-1.376,1.371-3.015,0.182-3.43-1.768
					c-0.373-1.756-0.107-4.585,1.658-5.205C357.826,241.32,359.424,242.897,359.453,244.822z"/>
				
					<path style="fill:none;stroke:#263238;stroke-width:0.4693;stroke-linecap:round;stroke-linejoin:round;stroke-miterlimit:10;" d="
					M348.389,256.771c0,0,2.437-2.09,2.014-4.402"/>
			</g>
			<g>
				<path style="fill:#263238;" d="M328.917,416.766l-1.43-0.002l-0.397-1.766l-4.734,2.137H310.36c0,0-1.907-1.918,3.805-3.446
					c0.26-0.07,0.53-0.17,0.809-0.31c3.046-1.428,7.381-6.252,7.381-6.252h6.582c0,0,0.23,0.329,0.539,0.949
					C330.195,409.525,331.437,412.564,328.917,416.766z"/>
				<path style="fill:#FFB573;" d="M329.476,408.077c0,0.01,0,0.02,0,0.02c-0.869-0.969-4.824,3.286-7.72,4.734
					c-2.587,1.288-5.493,1.858-6.781,0.549c3.046-1.428,7.836-7.664,7.836-7.664h5.293
					C328.103,405.716,329.166,407.458,329.476,408.077z"/>
			</g>
			<path style="opacity:0.2;" d="M341.559,297.247l-4.28,3.87c-2.85-1.03-7.09-1.67-9.3-1.88c1.17-2.01,2.65-4.02,4.46-6
				C336.629,294.027,341.559,297.247,341.559,297.247z"/>
			<g>
				<path style="fill:#EBB376;" d="M332.184,292.65l5.418,0.463l-3.74,6.365c0,0-2.631-0.386-4.204-1.542
					c-1.026-0.754-1.198-2.225-0.406-3.223l0.961-1.212C330.686,292.905,331.426,292.585,332.184,292.65z"/>
				<polygon style="fill:#EBB376;" points="342.92,297.009 337.846,301.391 333.862,299.478 337.602,293.113 				"/>
			</g>
			<path style="opacity:0.2;" d="M370.208,287.997c-0.94,5.2-1.43,9.45-1.6,13.16c-0.06,1.32,0.65,4.75,1.49,8.87
				c-10.19,3.8-20.68,4.18-20.68,4.18l-2.09-5.14l15.81-13.01l3.74-16.69c0,0,1.87,1.42,4.31,3.65
				C370.819,284.777,370.488,286.427,370.208,287.997z"/>
			<path style="fill:#263238;" d="M369.063,266.322c5.349,2.314,5.796,5.505,6.179,12.271c0,0-10.045,0.638-9.969,0.766
				c0.076,0.128-1.648-3.208-1.073-6.519C364.774,269.529,369.063,266.322,369.063,266.322z"/>
			<path style="opacity:0.2;fill:#FFFFFF;" d="M369.063,266.322c5.349,2.314,5.796,5.505,6.179,12.271c0,0-10.045,0.638-9.969,0.766
				c0.076,0.128-1.648-3.208-1.073-6.519C364.774,269.529,369.063,266.322,369.063,266.322z"/>
			<g>
				<path style="fill:#263238;" d="M374.82,273.569c0.26,2.026,0.397,3.987,0.562,5.984c0.138,1.991,0.243,3.99,0.287,6.003
					c0.058,2.011,0.055,4.043-0.02,6.113c-0.075,2.094-0.19,4.127-0.688,6.647l-0.105,0.528l-0.139,0.33
					c-0.333,0.79-0.668,1.264-0.98,1.691c-0.316,0.425-0.602,0.733-0.891,1.043c-0.565,0.586-1.102,1.053-1.635,1.482
					c-1.06,0.851-2.087,1.56-3.115,2.234c-2.05,1.344-4.12,2.482-6.191,3.591c-2.081,1.087-4.172,2.111-6.289,3.073
					c-2.133,0.941-4.237,1.871-6.441,2.701l-2.296-4.389l5.567-3.89c1.853-1.294,3.7-2.583,5.504-3.895
					c1.811-1.295,3.579-2.635,5.229-3.969c0.819-0.667,1.605-1.349,2.261-2.005c0.323-0.327,0.617-0.645,0.822-0.902
					c0.191-0.213,0.294-0.532,0.057-0.076l-0.243,0.857c0.126-1.349,0.101-3.246,0.032-5.063c-0.083-1.845-0.195-3.727-0.331-5.626
					l-0.903-11.435L374.82,273.569z"/>
			</g>
			<g style="opacity:0.2;">
				<path style="fill:#FFFFFF;" d="M374.82,273.569c0.26,2.026,0.397,3.987,0.562,5.984c0.138,1.991,0.243,3.99,0.287,6.003
					c0.058,2.011,0.055,4.043-0.02,6.113c-0.075,2.094-0.19,4.127-0.688,6.647l-0.105,0.528l-0.139,0.33
					c-0.333,0.79-0.668,1.264-0.98,1.691c-0.316,0.425-0.602,0.733-0.891,1.043c-0.565,0.586-1.102,1.053-1.635,1.482
					c-1.06,0.851-2.087,1.56-3.115,2.234c-2.05,1.344-4.12,2.482-6.191,3.591c-2.081,1.087-4.172,2.111-6.289,3.073
					c-2.133,0.941-4.237,1.871-6.441,2.701l-2.296-4.389l5.567-3.89c1.853-1.294,3.7-2.583,5.504-3.895
					c1.811-1.295,3.579-2.635,5.229-3.969c0.819-0.667,1.605-1.349,2.261-2.005c0.323-0.327,0.617-0.645,0.822-0.902
					c0.191-0.213,0.294-0.532,0.057-0.076l-0.243,0.857c0.126-1.349,0.101-3.246,0.032-5.063c-0.083-1.845-0.195-3.727-0.331-5.626
					l-0.903-11.435L374.82,273.569z"/>
			</g>
			<g>
				<path style="fill:#EBB376;" d="M348.724,309.488l-5.214-1.654l1.022,7.311c0,0,5.769,1.454,6.393-1.55L348.724,309.488z"/>
				<polygon style="fill:#EBB376;" points="337.106,309.401 340.118,315.389 344.531,315.145 343.509,307.834 				"/>
			</g>
			<g>
				<path style="fill:#263238;" d="M341.917,416.766l-1.43-0.002l-0.397-1.766l-4.734,2.137h-11.995c0,0-1.907-1.918,3.805-3.446
					c0.26-0.07,0.53-0.17,0.809-0.31c3.046-1.428,7.381-6.252,7.381-6.252h6.581c0,0,0.23,0.329,0.539,0.949
					C343.196,409.525,344.438,412.564,341.917,416.766z"/>
				<path style="fill:#FFB573;" d="M342.477,408.077c0,0.01,0,0.02,0,0.02c-0.869-0.969-4.824,3.286-7.72,4.734
					c-2.587,1.288-5.493,1.858-6.781,0.549c3.046-1.428,7.836-7.664,7.836-7.664h5.293
					C341.104,405.716,342.167,407.458,342.477,408.077z"/>
			</g>
		</g>
	</g>
</g>
</svg>
